<?xml version="1.0" encoding="UTF-8" standalone="no"?>
<!DOCTYPE svg PUBLIC "-//W3C//DTD SVG 1.1//EN"
 "http://www.w3.org/Graphics/SVG/1.1/DTD/svg11.dtd">
<!-- Generated by graphviz version 2.40.1 (20161225.0304)
 -->
<!-- Title: controllers_diagram Pages: 1 -->
<svg width="488pt" height="534pt"
 viewBox="0.00 0.00 488.41 534.00" xmlns="http://www.w3.org/2000/svg" xmlns:xlink="http://www.w3.org/1999/xlink">
<g id="graph0" class="graph" transform="scale(1 1) rotate(0) translate(4 530)">
<title>controllers_diagram</title>
<polygon fill="transparent" stroke="transparent" points="-4,4 -4,-530 484.4072,-530 484.4072,4 -4,4"/>
<!-- _diagram_info -->
<g id="node1" class="node">
<title>_diagram_info</title>
<text text-anchor="start" x="229" y="-58.6" font-family="Times,serif" font-size="13.00" fill="#000000">Controllers diagram</text>
<text text-anchor="start" x="229" y="-45.6" font-family="Times,serif" font-size="13.00" fill="#000000">Date: Dec 03 2018 &#45; 13:47</text>
<text text-anchor="start" x="229" y="-32.6" font-family="Times,serif" font-size="13.00" fill="#000000">Migration version: 20181130101927</text>
<text text-anchor="start" x="229" y="-19.6" font-family="Times,serif" font-size="13.00" fill="#000000">Generated by RailRoady 1.5.3</text>
<text text-anchor="start" x="229" y="-6.6" font-family="Times,serif" font-size="13.00" fill="#000000">http://railroady.prestonlee.com</text>
</g>
<!-- ApplicationController -->
<g id="node2" class="node">
<title>ApplicationController</title>
<path fill="none" stroke="#000000" d="M46,-391.5C46,-391.5 161.6416,-391.5 161.6416,-391.5 167.6416,-391.5 173.6416,-397.5 173.6416,-403.5 173.6416,-403.5 173.6416,-471.5 173.6416,-471.5 173.6416,-477.5 167.6416,-483.5 161.6416,-483.5 161.6416,-483.5 46,-483.5 46,-483.5 40,-483.5 34,-477.5 34,-471.5 34,-471.5 34,-403.5 34,-403.5 34,-397.5 40,-391.5 46,-391.5"/>
<text text-anchor="middle" x="103.8208" y="-468.3" font-family="Times,serif" font-size="14.00" fill="#000000">ApplicationController</text>
<polyline fill="none" stroke="#000000" points="34,-461.5 173.6416,-461.5 "/>
<polyline fill="none" stroke="#000000" points="34,-437.5 173.6416,-437.5 "/>
<polyline fill="none" stroke="#000000" points="34,-413.5 173.6416,-413.5 "/>
<text text-anchor="start" x="42" y="-398.3" font-family="Times,serif" font-size="14.00" fill="#000000">_layout</text>
</g>
<!-- PagesController -->
<g id="node3" class="node">
<title>PagesController</title>
<path fill="none" stroke="#000000" d="M12,-272.5C12,-272.5 94.207,-272.5 94.207,-272.5 100.207,-272.5 106.207,-278.5 106.207,-284.5 106.207,-284.5 106.207,-350.5 106.207,-350.5 106.207,-356.5 100.207,-362.5 94.207,-362.5 94.207,-362.5 12,-362.5 12,-362.5 6,-362.5 0,-356.5 0,-350.5 0,-350.5 0,-284.5 0,-284.5 0,-278.5 6,-272.5 12,-272.5"/>
<text text-anchor="middle" x="53.1035" y="-347.3" font-family="Times,serif" font-size="14.00" fill="#000000">PagesController</text>
<polyline fill="none" stroke="#000000" points="0,-340.5 106.207,-340.5 "/>
<text text-anchor="start" x="8" y="-325.3" font-family="Times,serif" font-size="14.00" fill="#000000">index</text>
<polyline fill="none" stroke="#000000" points="0,-318.5 106.207,-318.5 "/>
<polyline fill="none" stroke="#000000" points="0,-294.5 106.207,-294.5 "/>
<text text-anchor="start" x="8" y="-279.3" font-family="Times,serif" font-size="14.00" fill="#000000">_layout</text>
</g>
<!-- PhotosController -->
<g id="node4" class="node">
<title>PhotosController</title>
<path fill="none" stroke="#000000" d="M335,-102.5C335,-102.5 422.6689,-102.5 422.6689,-102.5 428.6689,-102.5 434.6689,-108.5 434.6689,-114.5 434.6689,-114.5 434.6689,-278.5 434.6689,-278.5 434.6689,-284.5 428.6689,-290.5 422.6689,-290.5 422.6689,-290.5 335,-290.5 335,-290.5 329,-290.5 323,-284.5 323,-278.5 323,-278.5 323,-114.5 323,-114.5 323,-108.5 329,-102.5 335,-102.5"/>
<text text-anchor="middle" x="378.8345" y="-275.3" font-family="Times,serif" font-size="14.00" fill="#000000">PhotosController</text>
<polyline fill="none" stroke="#000000" points="323,-268.5 434.6689,-268.5 "/>
<text text-anchor="start" x="331" y="-253.3" font-family="Times,serif" font-size="14.00" fill="#000000">create</text>
<text text-anchor="start" x="331" y="-239.3" font-family="Times,serif" font-size="14.00" fill="#000000">destroy</text>
<text text-anchor="start" x="331" y="-225.3" font-family="Times,serif" font-size="14.00" fill="#000000">edit</text>
<text text-anchor="start" x="331" y="-211.3" font-family="Times,serif" font-size="14.00" fill="#000000">index</text>
<text text-anchor="start" x="331" y="-197.3" font-family="Times,serif" font-size="14.00" fill="#000000">new</text>
<text text-anchor="start" x="331" y="-183.3" font-family="Times,serif" font-size="14.00" fill="#000000">show</text>
<text text-anchor="start" x="331" y="-169.3" font-family="Times,serif" font-size="14.00" fill="#000000">update</text>
<polyline fill="none" stroke="#000000" points="323,-162.5 434.6689,-162.5 "/>
<polyline fill="none" stroke="#000000" points="323,-138.5 434.6689,-138.5 "/>
<text text-anchor="start" x="331" y="-123.3" font-family="Times,serif" font-size="14.00" fill="#000000">_layout</text>
<text text-anchor="start" x="331" y="-109.3" font-family="Times,serif" font-size="14.00" fill="#000000">photo_params</text>
</g>
<!-- UserparamsController -->
<g id="node5" class="node">
<title>UserparamsController</title>
<path fill="none" stroke="#000000" d="M352,-323.5C352,-323.5 468.4072,-323.5 468.4072,-323.5 474.4072,-323.5 480.4072,-329.5 480.4072,-335.5 480.4072,-335.5 480.4072,-471.5 480.4072,-471.5 480.4072,-477.5 474.4072,-483.5 468.4072,-483.5 468.4072,-483.5 352,-483.5 352,-483.5 346,-483.5 340,-477.5 340,-471.5 340,-471.5 340,-335.5 340,-335.5 340,-329.5 346,-323.5 352,-323.5"/>
<text text-anchor="middle" x="410.2036" y="-468.3" font-family="Times,serif" font-size="14.00" fill="#000000">UserparamsController</text>
<polyline fill="none" stroke="#000000" points="340,-461.5 480.4072,-461.5 "/>
<text text-anchor="start" x="348" y="-446.3" font-family="Times,serif" font-size="14.00" fill="#000000">create</text>
<text text-anchor="start" x="348" y="-432.3" font-family="Times,serif" font-size="14.00" fill="#000000">edit</text>
<text text-anchor="start" x="348" y="-418.3" font-family="Times,serif" font-size="14.00" fill="#000000">new</text>
<text text-anchor="start" x="348" y="-404.3" font-family="Times,serif" font-size="14.00" fill="#000000">show</text>
<text text-anchor="start" x="348" y="-390.3" font-family="Times,serif" font-size="14.00" fill="#000000">update</text>
<polyline fill="none" stroke="#000000" points="340,-383.5 480.4072,-383.5 "/>
<polyline fill="none" stroke="#000000" points="340,-359.5 480.4072,-359.5 "/>
<text text-anchor="start" x="348" y="-344.3" font-family="Times,serif" font-size="14.00" fill="#000000">_layout</text>
<text text-anchor="start" x="348" y="-330.3" font-family="Times,serif" font-size="14.00" fill="#000000">profile_params</text>
</g>
<!-- PostsController -->
<g id="node6" class="node">
<title>PostsController</title>
<path fill="none" stroke="#000000" d="M216,-323.5C216,-323.5 295.1172,-323.5 295.1172,-323.5 301.1172,-323.5 307.1172,-329.5 307.1172,-335.5 307.1172,-335.5 307.1172,-513.5 307.1172,-513.5 307.1172,-519.5 301.1172,-525.5 295.1172,-525.5 295.1172,-525.5 216,-525.5 216,-525.5 210,-525.5 204,-519.5 204,-513.5 204,-513.5 204,-335.5 204,-335.5 204,-329.5 210,-323.5 216,-323.5"/>
<text text-anchor="middle" x="255.5586" y="-510.3" font-family="Times,serif" font-size="14.00" fill="#000000">PostsController</text>
<polyline fill="none" stroke="#000000" points="204,-503.5 307.1172,-503.5 "/>
<text text-anchor="start" x="212" y="-488.3" font-family="Times,serif" font-size="14.00" fill="#000000">create</text>
<text text-anchor="start" x="212" y="-474.3" font-family="Times,serif" font-size="14.00" fill="#000000">destroy</text>
<text text-anchor="start" x="212" y="-460.3" font-family="Times,serif" font-size="14.00" fill="#000000">edit</text>
<text text-anchor="start" x="212" y="-446.3" font-family="Times,serif" font-size="14.00" fill="#000000">index</text>
<text text-anchor="start" x="212" y="-432.3" font-family="Times,serif" font-size="14.00" fill="#000000">new</text>
<text text-anchor="start" x="212" y="-418.3" font-family="Times,serif" font-size="14.00" fill="#000000">show</text>
<text text-anchor="start" x="212" y="-404.3" font-family="Times,serif" font-size="14.00" fill="#000000">update</text>
<polyline fill="none" stroke="#000000" points="204,-397.5 307.1172,-397.5 "/>
<polyline fill="none" stroke="#000000" points="204,-373.5 307.1172,-373.5 "/>
<text text-anchor="start" x="212" y="-358.3" font-family="Times,serif" font-size="14.00" fill="#000000">_layout</text>
<text text-anchor="start" x="212" y="-344.3" font-family="Times,serif" font-size="14.00" fill="#000000">find_post</text>
<text text-anchor="start" x="212" y="-330.3" font-family="Times,serif" font-size="14.00" fill="#000000">post_params</text>
</g>
<!-- PostcommentsController -->
<g id="node7" class="node">
<title>PostcommentsController</title>
<path fill="none" stroke="#000000" d="M148,-102.5C148,-102.5 279.2139,-102.5 279.2139,-102.5 285.2139,-102.5 291.2139,-108.5 291.2139,-114.5 291.2139,-114.5 291.2139,-278.5 291.2139,-278.5 291.2139,-284.5 285.2139,-290.5 279.2139,-290.5 279.2139,-290.5 148,-290.5 148,-290.5 142,-290.5 136,-284.5 136,-278.5 136,-278.5 136,-114.5 136,-114.5 136,-108.5 142,-102.5 148,-102.5"/>
<text text-anchor="middle" x="213.6069" y="-275.3" font-family="Times,serif" font-size="14.00" fill="#000000">PostcommentsController</text>
<polyline fill="none" stroke="#000000" points="136,-268.5 291.2139,-268.5 "/>
<text text-anchor="start" x="144" y="-253.3" font-family="Times,serif" font-size="14.00" fill="#000000">create</text>
<text text-anchor="start" x="144" y="-239.3" font-family="Times,serif" font-size="14.00" fill="#000000">destroy</text>
<text text-anchor="start" x="144" y="-225.3" font-family="Times,serif" font-size="14.00" fill="#000000">edit</text>
<text text-anchor="start" x="144" y="-211.3" font-family="Times,serif" font-size="14.00" fill="#000000">new</text>
<text text-anchor="start" x="144" y="-197.3" font-family="Times,serif" font-size="14.00" fill="#000000">show</text>
<text text-anchor="start" x="144" y="-183.3" font-family="Times,serif" font-size="14.00" fill="#000000">update</text>
<polyline fill="none" stroke="#000000" points="136,-176.5 291.2139,-176.5 "/>
<polyline fill="none" stroke="#000000" points="136,-152.5 291.2139,-152.5 "/>
<text text-anchor="start" x="144" y="-137.3" font-family="Times,serif" font-size="14.00" fill="#000000">_layout</text>
<text text-anchor="start" x="144" y="-123.3" font-family="Times,serif" font-size="14.00" fill="#000000">comment_params</text>
<text text-anchor="start" x="144" y="-109.3" font-family="Times,serif" font-size="14.00" fill="#000000">set_post</text>
</g>
</g>
</svg>
