<?xml version="1.0" encoding="UTF-8" standalone="no"?>
<!DOCTYPE svg PUBLIC "-//W3C//DTD SVG 1.1//EN"
 "http://www.w3.org/Graphics/SVG/1.1/DTD/svg11.dtd">
<!-- Generated by graphviz version 2.40.1 (20161225.0304)
 -->
<!-- Title: models_diagram Pages: 1 -->
<svg width="580pt" height="225pt"
 viewBox="0.00 0.00 579.85 225.00" xmlns="http://www.w3.org/2000/svg" xmlns:xlink="http://www.w3.org/1999/xlink">
<g id="graph0" class="graph" transform="scale(1 1) rotate(0) translate(4 221)">
<title>models_diagram</title>
<polygon fill="transparent" stroke="transparent" points="-4,4 -4,-221 575.8455,-221 575.8455,4 -4,4"/>
<!-- _diagram_info -->
<g id="node1" class="node">
<title>_diagram_info</title>
<text text-anchor="start" x="8" y="-202.6" font-family="Times,serif" font-size="13.00" fill="#000000">Models diagram</text>
<text text-anchor="start" x="8" y="-189.6" font-family="Times,serif" font-size="13.00" fill="#000000">Date: Dec 03 2018 &#45; 13:47</text>
<text text-anchor="start" x="8" y="-176.6" font-family="Times,serif" font-size="13.00" fill="#000000">Migration version: 20181130101927</text>
<text text-anchor="start" x="8" y="-163.6" font-family="Times,serif" font-size="13.00" fill="#000000">Generated by RailRoady 1.5.3</text>
<text text-anchor="start" x="8" y="-150.6" font-family="Times,serif" font-size="13.00" fill="#000000">http://railroady.prestonlee.com</text>
</g>
<!-- Userparam -->
<g id="node2" class="node">
<title>Userparam</title>
<ellipse fill="none" stroke="#000000" cx="124.4497" cy="-90" rx="48.8014" ry="18"/>
<text text-anchor="middle" x="124.4497" y="-85.8" font-family="Times,serif" font-size="14.00" fill="#000000">Userparam</text>
</g>
<!-- Photo -->
<g id="node3" class="node">
<title>Photo</title>
<ellipse fill="none" stroke="#000000" cx="222.4497" cy="-90" rx="30.9967" ry="18"/>
<text text-anchor="middle" x="222.4497" y="-85.8" font-family="Times,serif" font-size="14.00" fill="#000000">Photo</text>
</g>
<!-- PostComment -->
<g id="node4" class="node">
<title>PostComment</title>
<ellipse fill="none" stroke="#000000" cx="308.4497" cy="-18" rx="60.4548" ry="18"/>
<text text-anchor="middle" x="308.4497" y="-13.8" font-family="Times,serif" font-size="14.00" fill="#000000">PostComment</text>
</g>
<!-- AdminUser -->
<g id="node5" class="node">
<title>AdminUser</title>
<ellipse fill="none" stroke="#000000" cx="347.4497" cy="-180.5" rx="51.2415" ry="18"/>
<text text-anchor="middle" x="347.4497" y="-176.3" font-family="Times,serif" font-size="14.00" fill="#000000">AdminUser</text>
</g>
<!-- ApplicationRecord -->
<g id="node6" class="node">
<title>ApplicationRecord</title>
<ellipse fill="none" stroke="#000000" cx="494.4497" cy="-180.5" rx="77.2916" ry="18"/>
<text text-anchor="middle" x="494.4497" y="-176.3" font-family="Times,serif" font-size="14.00" fill="#000000">ApplicationRecord</text>
</g>
<!-- Post -->
<g id="node7" class="node">
<title>Post</title>
<ellipse fill="none" stroke="#000000" cx="336.4497" cy="-90" rx="27" ry="18"/>
<text text-anchor="middle" x="336.4497" y="-85.8" font-family="Times,serif" font-size="14.00" fill="#000000">Post</text>
</g>
<!-- Post&#45;&gt;PostComment -->
<g id="edge1" class="edge">
<title>Post&#45;&gt;PostComment</title>
<path fill="none" stroke="#1e6cfd" d="M326.6921,-64.909C324.2639,-58.6651 321.6477,-51.9376 319.1757,-45.5812"/>
<ellipse fill="none" stroke="#1e6cfd" cx="328.2219" cy="-68.8428" rx="4" ry="4"/>
<polygon fill="#1e6cfd" stroke="#1e6cfd" points="319.0822,-45.3406 319.6517,-34.3896 317.27,-40.6806 315.4577,-36.0206 315.4577,-36.0206 315.4577,-36.0206 317.27,-40.6806 311.2637,-37.6516 319.0822,-45.3406 319.0822,-45.3406"/>
</g>
<!-- User -->
<g id="node8" class="node">
<title>User</title>
<ellipse fill="none" stroke="#000000" cx="251.4497" cy="-180.5" rx="27" ry="18"/>
<text text-anchor="middle" x="251.4497" y="-176.3" font-family="Times,serif" font-size="14.00" fill="#000000">User</text>
</g>
<!-- User&#45;&gt;Userparam -->
<g id="edge2" class="edge">
<title>User&#45;&gt;Userparam</title>
<path fill="none" stroke="#cd471f" d="M231.8461,-158.7825C226.7463,-153.6626 221.0926,-148.4151 215.4497,-144 198.4854,-130.7269 177.9715,-118.2845 160.7181,-108.6962"/>
<ellipse fill="none" stroke="#cd471f" cx="234.7643" cy="-161.8009" rx="4" ry="4"/>
<ellipse fill="#cd471f" stroke="#cd471f" cx="157.0518" cy="-106.6887" rx="4" ry="4"/>
</g>
<!-- User&#45;&gt;Photo -->
<g id="edge5" class="edge">
<title>User&#45;&gt;Photo</title>
<path fill="none" stroke="#a7e5c7" d="M243.1859,-154.7112C239.4716,-143.1202 235.083,-129.4245 231.3017,-117.6242"/>
<ellipse fill="none" stroke="#a7e5c7" cx="244.4996" cy="-158.8109" rx="4" ry="4"/>
<polygon fill="#a7e5c7" stroke="#a7e5c7" points="231.2189,-117.3658 232.4526,-106.4695 229.6931,-112.6043 228.1673,-107.8427 228.1673,-107.8427 228.1673,-107.8427 229.6931,-112.6043 223.8819,-109.216 231.2189,-117.3658 231.2189,-117.3658"/>
</g>
<!-- User&#45;&gt;PostComment -->
<g id="edge4" class="edge">
<title>User&#45;&gt;PostComment</title>
<path fill="none" stroke="#19a157" d="M260.4155,-154.9396C270.8311,-125.246 287.9555,-76.4266 298.696,-45.8065"/>
<ellipse fill="none" stroke="#19a157" cx="258.9822" cy="-159.0258" rx="4" ry="4"/>
<polygon fill="#19a157" stroke="#19a157" points="298.7648,-45.6103 306.3212,-37.6635 300.4198,-40.8921 302.0748,-36.1739 302.0748,-36.1739 302.0748,-36.1739 300.4198,-40.8921 297.8285,-34.6844 298.7648,-45.6103 298.7648,-45.6103"/>
</g>
<!-- User&#45;&gt;Post -->
<g id="edge3" class="edge">
<title>User&#45;&gt;Post</title>
<path fill="none" stroke="#91dc3a" d="M271.7123,-158.9263C284.7689,-145.0249 301.7236,-126.9731 315.0064,-112.8308"/>
<ellipse fill="none" stroke="#91dc3a" cx="268.6073" cy="-162.2323" rx="4" ry="4"/>
<polygon fill="#91dc3a" stroke="#91dc3a" points="315.1137,-112.7165 325.24,-108.5082 318.5368,-109.072 321.9599,-105.4274 321.9599,-105.4274 321.9599,-105.4274 318.5368,-109.072 318.6798,-102.3466 315.1137,-112.7165 315.1137,-112.7165"/>
</g>
</g>
</svg>
