<?xml version="1.0" encoding="UTF-8" standalone="no"?>
<!DOCTYPE svg PUBLIC "-//W3C//DTD SVG 1.1//EN"
 "http://www.w3.org/Graphics/SVG/1.1/DTD/svg11.dtd">
<!-- Generated by graphviz version 2.40.1 (20161225.0304)
 -->
<!-- Title: models_diagram Pages: 1 -->
<svg width="834pt" height="523pt"
 viewBox="0.00 0.00 833.85 523.00" xmlns="http://www.w3.org/2000/svg" xmlns:xlink="http://www.w3.org/1999/xlink">
<g id="graph0" class="graph" transform="scale(1 1) rotate(0) translate(4 519)">
<title>models_diagram</title>
<polygon fill="transparent" stroke="transparent" points="-4,4 -4,-519 829.8455,-519 829.8455,4 -4,4"/>
<!-- _diagram_info -->
<g id="node1" class="node">
<title>_diagram_info</title>
<text text-anchor="start" x="8" y="-465.6" font-family="Times,serif" font-size="13.00" fill="#000000">Models diagram</text>
<text text-anchor="start" x="8" y="-452.6" font-family="Times,serif" font-size="13.00" fill="#000000">Date: Dec 03 2018 &#45; 13:47</text>
<text text-anchor="start" x="8" y="-439.6" font-family="Times,serif" font-size="13.00" fill="#000000">Migration version: 20181130101927</text>
<text text-anchor="start" x="8" y="-426.6" font-family="Times,serif" font-size="13.00" fill="#000000">Generated by RailRoady 1.5.3</text>
<text text-anchor="start" x="8" y="-413.6" font-family="Times,serif" font-size="13.00" fill="#000000">http://railroady.prestonlee.com</text>
</g>
<!-- Userparam -->
<g id="node2" class="node">
<title>Userparam</title>
<path fill="none" stroke="#000000" d="M29.02,-151.5C29.02,-151.5 183.8794,-151.5 183.8794,-151.5 189.8794,-151.5 195.8794,-157.5 195.8794,-163.5 195.8794,-163.5 195.8794,-323.5 195.8794,-323.5 195.8794,-329.5 189.8794,-335.5 183.8794,-335.5 183.8794,-335.5 29.02,-335.5 29.02,-335.5 23.02,-335.5 17.02,-329.5 17.02,-323.5 17.02,-323.5 17.02,-163.5 17.02,-163.5 17.02,-157.5 23.02,-151.5 29.02,-151.5"/>
<text text-anchor="middle" x="106.4497" y="-320.3" font-family="Times,serif" font-size="14.00" fill="#000000">Userparam</text>
<polyline fill="none" stroke="#000000" points="17.02,-313.5 195.8794,-313.5 "/>
<text text-anchor="start" x="25.02" y="-298.3" font-family="Times,serif" font-size="14.00" fill="#000000">avatar_updated_at :datetime</text>
<text text-anchor="start" x="25.02" y="-284.3" font-family="Times,serif" font-size="14.00" fill="#000000">user_id :integer</text>
<text text-anchor="start" x="25.02" y="-270.3" font-family="Times,serif" font-size="14.00" fill="#000000">firstname :varchar</text>
<text text-anchor="start" x="25.02" y="-256.3" font-family="Times,serif" font-size="14.00" fill="#000000">lastname :varchar</text>
<text text-anchor="start" x="25.02" y="-242.3" font-family="Times,serif" font-size="14.00" fill="#000000">age :integer</text>
<text text-anchor="start" x="25.02" y="-228.3" font-family="Times,serif" font-size="14.00" fill="#000000">created_at :datetime</text>
<text text-anchor="start" x="25.02" y="-214.3" font-family="Times,serif" font-size="14.00" fill="#000000">updated_at :datetime</text>
<text text-anchor="start" x="25.02" y="-200.3" font-family="Times,serif" font-size="14.00" fill="#000000">avatar_file_name :varchar</text>
<text text-anchor="start" x="25.02" y="-186.3" font-family="Times,serif" font-size="14.00" fill="#000000">avatar_content_type :varchar</text>
<text text-anchor="start" x="25.02" y="-172.3" font-family="Times,serif" font-size="14.00" fill="#000000">avatar_file_size :integer</text>
<text text-anchor="start" x="25.02" y="-158.3" font-family="Times,serif" font-size="14.00" fill="#000000">id :INTEGER</text>
</g>
<!-- Photo -->
<g id="node3" class="node">
<title>Photo</title>
<path fill="none" stroke="#000000" d="M225.9443,-179.5C225.9443,-179.5 334.9551,-179.5 334.9551,-179.5 340.9551,-179.5 346.9551,-185.5 346.9551,-191.5 346.9551,-191.5 346.9551,-295.5 346.9551,-295.5 346.9551,-301.5 340.9551,-307.5 334.9551,-307.5 334.9551,-307.5 225.9443,-307.5 225.9443,-307.5 219.9443,-307.5 213.9443,-301.5 213.9443,-295.5 213.9443,-295.5 213.9443,-191.5 213.9443,-191.5 213.9443,-185.5 219.9443,-179.5 225.9443,-179.5"/>
<text text-anchor="middle" x="280.4497" y="-292.3" font-family="Times,serif" font-size="14.00" fill="#000000">Photo</text>
<polyline fill="none" stroke="#000000" points="213.9443,-285.5 346.9551,-285.5 "/>
<text text-anchor="start" x="221.9443" y="-270.3" font-family="Times,serif" font-size="14.00" fill="#000000">id :INTEGER</text>
<text text-anchor="start" x="221.9443" y="-256.3" font-family="Times,serif" font-size="14.00" fill="#000000">title :varchar</text>
<text text-anchor="start" x="221.9443" y="-242.3" font-family="Times,serif" font-size="14.00" fill="#000000">description :varchar</text>
<text text-anchor="start" x="221.9443" y="-228.3" font-family="Times,serif" font-size="14.00" fill="#000000">created_at :datetime</text>
<text text-anchor="start" x="221.9443" y="-214.3" font-family="Times,serif" font-size="14.00" fill="#000000">updated_at :datetime</text>
<text text-anchor="start" x="221.9443" y="-200.3" font-family="Times,serif" font-size="14.00" fill="#000000">image :varchar</text>
<text text-anchor="start" x="221.9443" y="-186.3" font-family="Times,serif" font-size="14.00" fill="#000000">user_id :integer</text>
</g>
<!-- PostComment -->
<g id="node4" class="node">
<title>PostComment</title>
<path fill="none" stroke="#000000" d="M367.9443,-.5C367.9443,-.5 476.9551,-.5 476.9551,-.5 482.9551,-.5 488.9551,-6.5 488.9551,-12.5 488.9551,-12.5 488.9551,-102.5 488.9551,-102.5 488.9551,-108.5 482.9551,-114.5 476.9551,-114.5 476.9551,-114.5 367.9443,-114.5 367.9443,-114.5 361.9443,-114.5 355.9443,-108.5 355.9443,-102.5 355.9443,-102.5 355.9443,-12.5 355.9443,-12.5 355.9443,-6.5 361.9443,-.5 367.9443,-.5"/>
<text text-anchor="middle" x="422.4497" y="-99.3" font-family="Times,serif" font-size="14.00" fill="#000000">PostComment</text>
<polyline fill="none" stroke="#000000" points="355.9443,-92.5 488.9551,-92.5 "/>
<text text-anchor="start" x="363.9443" y="-77.3" font-family="Times,serif" font-size="14.00" fill="#000000">id :INTEGER</text>
<text text-anchor="start" x="363.9443" y="-63.3" font-family="Times,serif" font-size="14.00" fill="#000000">user_id :integer</text>
<text text-anchor="start" x="363.9443" y="-49.3" font-family="Times,serif" font-size="14.00" fill="#000000">post_id :integer</text>
<text text-anchor="start" x="363.9443" y="-35.3" font-family="Times,serif" font-size="14.00" fill="#000000">body :varchar</text>
<text text-anchor="start" x="363.9443" y="-21.3" font-family="Times,serif" font-size="14.00" fill="#000000">created_at :datetime</text>
<text text-anchor="start" x="363.9443" y="-7.3" font-family="Times,serif" font-size="14.00" fill="#000000">updated_at :datetime</text>
</g>
<!-- AdminUser -->
<g id="node5" class="node">
<title>AdminUser</title>
<path fill="none" stroke="#000000" d="M460.1719,-372.5C460.1719,-372.5 640.7275,-372.5 640.7275,-372.5 646.7275,-372.5 652.7275,-378.5 652.7275,-384.5 652.7275,-384.5 652.7275,-502.5 652.7275,-502.5 652.7275,-508.5 646.7275,-514.5 640.7275,-514.5 640.7275,-514.5 460.1719,-514.5 460.1719,-514.5 454.1719,-514.5 448.1719,-508.5 448.1719,-502.5 448.1719,-502.5 448.1719,-384.5 448.1719,-384.5 448.1719,-378.5 454.1719,-372.5 460.1719,-372.5"/>
<text text-anchor="middle" x="550.4497" y="-499.3" font-family="Times,serif" font-size="14.00" fill="#000000">AdminUser</text>
<polyline fill="none" stroke="#000000" points="448.1719,-492.5 652.7275,-492.5 "/>
<text text-anchor="start" x="456.1719" y="-477.3" font-family="Times,serif" font-size="14.00" fill="#000000">updated_at :datetime</text>
<text text-anchor="start" x="456.1719" y="-463.3" font-family="Times,serif" font-size="14.00" fill="#000000">email :varchar</text>
<text text-anchor="start" x="456.1719" y="-449.3" font-family="Times,serif" font-size="14.00" fill="#000000">encrypted_password :varchar</text>
<text text-anchor="start" x="456.1719" y="-435.3" font-family="Times,serif" font-size="14.00" fill="#000000">reset_password_token :varchar</text>
<text text-anchor="start" x="456.1719" y="-421.3" font-family="Times,serif" font-size="14.00" fill="#000000">reset_password_sent_at :datetime</text>
<text text-anchor="start" x="456.1719" y="-407.3" font-family="Times,serif" font-size="14.00" fill="#000000">remember_created_at :datetime</text>
<text text-anchor="start" x="456.1719" y="-393.3" font-family="Times,serif" font-size="14.00" fill="#000000">created_at :datetime</text>
<text text-anchor="start" x="456.1719" y="-379.3" font-family="Times,serif" font-size="14.00" fill="#000000">id :INTEGER</text>
</g>
<!-- ApplicationRecord -->
<g id="node6" class="node">
<title>ApplicationRecord</title>
<ellipse fill="none" stroke="#000000" cx="748.4497" cy="-443.5" rx="77.2916" ry="18"/>
<text text-anchor="middle" x="748.4497" y="-439.3" font-family="Times,serif" font-size="14.00" fill="#000000">ApplicationRecord</text>
</g>
<!-- Post -->
<g id="node7" class="node">
<title>Post</title>
<path fill="none" stroke="#000000" d="M415.9443,-186.5C415.9443,-186.5 524.9551,-186.5 524.9551,-186.5 530.9551,-186.5 536.9551,-192.5 536.9551,-198.5 536.9551,-198.5 536.9551,-288.5 536.9551,-288.5 536.9551,-294.5 530.9551,-300.5 524.9551,-300.5 524.9551,-300.5 415.9443,-300.5 415.9443,-300.5 409.9443,-300.5 403.9443,-294.5 403.9443,-288.5 403.9443,-288.5 403.9443,-198.5 403.9443,-198.5 403.9443,-192.5 409.9443,-186.5 415.9443,-186.5"/>
<text text-anchor="middle" x="470.4497" y="-285.3" font-family="Times,serif" font-size="14.00" fill="#000000">Post</text>
<polyline fill="none" stroke="#000000" points="403.9443,-278.5 536.9551,-278.5 "/>
<text text-anchor="start" x="411.9443" y="-263.3" font-family="Times,serif" font-size="14.00" fill="#000000">id :INTEGER</text>
<text text-anchor="start" x="411.9443" y="-249.3" font-family="Times,serif" font-size="14.00" fill="#000000">user_id :integer</text>
<text text-anchor="start" x="411.9443" y="-235.3" font-family="Times,serif" font-size="14.00" fill="#000000">title :varchar</text>
<text text-anchor="start" x="411.9443" y="-221.3" font-family="Times,serif" font-size="14.00" fill="#000000">body :varchar</text>
<text text-anchor="start" x="411.9443" y="-207.3" font-family="Times,serif" font-size="14.00" fill="#000000">created_at :datetime</text>
<text text-anchor="start" x="411.9443" y="-193.3" font-family="Times,serif" font-size="14.00" fill="#000000">updated_at :datetime</text>
</g>
<!-- Post&#45;&gt;PostComment -->
<g id="edge1" class="edge">
<title>Post&#45;&gt;PostComment</title>
<path fill="none" stroke="#24b3dd" d="M453.6959,-178.5792C449.2147,-161.2142 444.3614,-142.4079 439.8463,-124.9119"/>
<ellipse fill="none" stroke="#24b3dd" cx="454.7224" cy="-182.5567" rx="4" ry="4"/>
<polygon fill="#24b3dd" stroke="#24b3dd" points="439.7312,-124.4655 441.5896,-113.6582 438.4818,-119.6241 437.2323,-114.7827 437.2323,-114.7827 437.2323,-114.7827 438.4818,-119.6241 432.8751,-115.9072 439.7312,-124.4655 439.7312,-124.4655"/>
</g>
<!-- User -->
<g id="node8" class="node">
<title>User</title>
<path fill="none" stroke="#000000" d="M237.1719,-372.5C237.1719,-372.5 417.7275,-372.5 417.7275,-372.5 423.7275,-372.5 429.7275,-378.5 429.7275,-384.5 429.7275,-384.5 429.7275,-502.5 429.7275,-502.5 429.7275,-508.5 423.7275,-514.5 417.7275,-514.5 417.7275,-514.5 237.1719,-514.5 237.1719,-514.5 231.1719,-514.5 225.1719,-508.5 225.1719,-502.5 225.1719,-502.5 225.1719,-384.5 225.1719,-384.5 225.1719,-378.5 231.1719,-372.5 237.1719,-372.5"/>
<text text-anchor="middle" x="327.4497" y="-499.3" font-family="Times,serif" font-size="14.00" fill="#000000">User</text>
<polyline fill="none" stroke="#000000" points="225.1719,-492.5 429.7275,-492.5 "/>
<text text-anchor="start" x="233.1719" y="-477.3" font-family="Times,serif" font-size="14.00" fill="#000000">updated_at :datetime</text>
<text text-anchor="start" x="233.1719" y="-463.3" font-family="Times,serif" font-size="14.00" fill="#000000">email :varchar</text>
<text text-anchor="start" x="233.1719" y="-449.3" font-family="Times,serif" font-size="14.00" fill="#000000">encrypted_password :varchar</text>
<text text-anchor="start" x="233.1719" y="-435.3" font-family="Times,serif" font-size="14.00" fill="#000000">reset_password_token :varchar</text>
<text text-anchor="start" x="233.1719" y="-421.3" font-family="Times,serif" font-size="14.00" fill="#000000">reset_password_sent_at :datetime</text>
<text text-anchor="start" x="233.1719" y="-407.3" font-family="Times,serif" font-size="14.00" fill="#000000">remember_created_at :datetime</text>
<text text-anchor="start" x="233.1719" y="-393.3" font-family="Times,serif" font-size="14.00" fill="#000000">created_at :datetime</text>
<text text-anchor="start" x="233.1719" y="-379.3" font-family="Times,serif" font-size="14.00" fill="#000000">id :INTEGER</text>
</g>
<!-- User&#45;&gt;Userparam -->
<g id="edge2" class="edge">
<title>User&#45;&gt;Userparam</title>
<path fill="none" stroke="#73749f" d="M238.9369,-366.8607C227.277,-356.5549 215.5334,-346.0676 204.4497,-336 203.6704,-335.2921 202.8882,-334.5806 202.1035,-333.8657"/>
<ellipse fill="none" stroke="#73749f" cx="242.0233" cy="-369.5838" rx="4" ry="4"/>
<ellipse fill="#73749f" stroke="#73749f" cx="198.9952" cy="-331.0239" rx="4" ry="4"/>
</g>
<!-- User&#45;&gt;Photo -->
<g id="edge5" class="edge">
<title>User&#45;&gt;Photo</title>
<path fill="none" stroke="#0e197c" d="M308.868,-364.4289C305.2394,-348.9879 301.447,-332.85 297.8581,-317.5785"/>
<ellipse fill="none" stroke="#0e197c" cx="309.8318" cy="-368.5304" rx="4" ry="4"/>
<polygon fill="#0e197c" stroke="#0e197c" points="297.8207,-317.4188 299.9136,-306.6545 296.6768,-312.5514 295.5329,-307.684 295.5329,-307.684 295.5329,-307.684 296.6768,-312.5514 291.1523,-308.7135 297.8207,-317.4188 297.8207,-317.4188"/>
</g>
<!-- User&#45;&gt;PostComment -->
<g id="edge4" class="edge">
<title>User&#45;&gt;PostComment</title>
<path fill="none" stroke="#d527e5" d="M349.4045,-364.2838C351.8667,-354.7746 354.27,-345.1835 356.4497,-336 375.8344,-254.3302 373.9451,-232.3959 394.4497,-151 396.6384,-142.3118 399.1174,-133.2239 401.6735,-124.272"/>
<ellipse fill="none" stroke="#d527e5" cx="348.3369" cy="-368.3712" rx="4" ry="4"/>
<polygon fill="#d527e5" stroke="#d527e5" points="401.6823,-124.2414 408.7892,-115.8902 403.0748,-119.4392 404.4673,-114.637 404.4673,-114.637 404.4673,-114.637 403.0748,-119.4392 400.1453,-113.3837 401.6823,-124.2414 401.6823,-124.2414"/>
</g>
<!-- User&#45;&gt;Post -->
<g id="edge3" class="edge">
<title>User&#45;&gt;Post</title>
<path fill="none" stroke="#aaf913" d="M383.051,-365.736C396.518,-346.901 410.7776,-326.9575 423.7851,-308.7652"/>
<ellipse fill="none" stroke="#aaf913" cx="380.5953" cy="-369.1705" rx="4" ry="4"/>
<polygon fill="#aaf913" stroke="#aaf913" points="423.8497,-308.6747 433.3266,-303.1575 426.7579,-304.6074 429.666,-300.5401 429.666,-300.5401 429.666,-300.5401 426.7579,-304.6074 426.0054,-297.9228 423.8497,-308.6747 423.8497,-308.6747"/>
</g>
</g>
</svg>
